<svg width="186" height="25" viewBox="0 0 186 25" fill="none" xmlns="http://www.w3.org/2000/svg">
<path d="M15.3899 5.29084L16.7999 8.11084C16.9899 8.50084 17.4999 8.87084 17.9299 8.95084L20.4799 9.37084C22.1099 9.64084 22.4899 10.8208 21.3199 12.0008L19.3299 13.9908C18.9999 14.3208 18.8099 14.9708 18.9199 15.4408L19.4899 17.9008C19.9399 19.8408 18.8999 20.6008 17.1899 19.5808L14.7999 18.1608C14.3699 17.9008 13.6499 17.9008 13.2199 18.1608L10.8299 19.5808C9.11994 20.5908 8.07994 19.8408 8.52994 17.9008L9.09994 15.4408C9.18994 14.9608 8.99994 14.3108 8.66994 13.9808L6.67994 11.9908C5.50994 10.8208 5.88994 9.64084 7.51994 9.36084L10.0699 8.94084C10.4999 8.87084 11.0099 8.49084 11.1999 8.10084L12.6099 5.28084C13.3799 3.76084 14.6199 3.76084 15.3899 5.29084Z" fill="#292D32"/>
<path d="M8 5.83105H2C1.59 5.83105 1.25 5.49105 1.25 5.08105C1.25 4.67105 1.59 4.33105 2 4.33105H8C8.41 4.33105 8.75 4.67105 8.75 5.08105C8.75 5.49105 8.41 5.83105 8 5.83105Z" fill="#292D32"/>
<path d="M5 19.8311H2C1.59 19.8311 1.25 19.4911 1.25 19.0811C1.25 18.6711 1.59 18.3311 2 18.3311H5C5.41 18.3311 5.75 18.6711 5.75 19.0811C5.75 19.4911 5.41 19.8311 5 19.8311Z" fill="#292D32"/>
<path d="M3 12.8311H2C1.59 12.8311 1.25 12.4911 1.25 12.0811C1.25 11.6711 1.59 11.3311 2 11.3311H3C3.41 11.3311 3.75 11.6711 3.75 12.0811C3.75 12.4911 3.41 12.8311 3 12.8311Z" fill="#292D32"/>
<path d="M32.9141 13.7217V15.1045H31.4688V17.5811H30.0156V15.1045H24.8281L24.4766 13.917L29.8906 6.54199H31.4688V13.7217H32.9141ZM26.0938 13.7217H30.0156V8.39355L26.0938 13.7217ZM35.0569 17.6904C34.7652 17.6904 34.5204 17.5915 34.3225 17.3936C34.1298 17.1956 34.0334 16.9535 34.0334 16.667C34.0334 16.3805 34.1298 16.1383 34.3225 15.9404C34.5204 15.7425 34.7652 15.6436 35.0569 15.6436C35.3538 15.6436 35.6011 15.7425 35.7991 15.9404C35.997 16.1331 36.0959 16.3753 36.0959 16.667C36.0959 16.9587 35.997 17.2035 35.7991 17.4014C35.6011 17.5941 35.3538 17.6904 35.0569 17.6904ZM40.4497 6.34668C41.6997 6.34668 42.6997 6.7321 43.4497 7.50293C44.2049 8.26855 44.5825 9.31803 44.5825 10.6514C44.5825 11.5055 44.421 12.3337 44.0981 13.1357C43.7804 13.9378 43.3351 14.6592 42.7622 15.2998C42.1945 15.9404 41.4861 16.4821 40.6372 16.9248C39.7934 17.3623 38.8716 17.6462 37.8716 17.7764L37.6059 16.4092C38.9289 16.1956 40.0304 15.7217 40.9106 14.9873C41.796 14.2529 42.4054 13.3883 42.7388 12.3936C42.4054 12.7477 41.9888 13.0186 41.4888 13.2061C40.994 13.3936 40.4783 13.4873 39.9419 13.4873C38.9315 13.4873 38.0851 13.154 37.4028 12.4873C36.7257 11.8154 36.3872 10.9899 36.3872 10.0107C36.3872 8.95866 36.77 8.08626 37.5356 7.39355C38.3065 6.69564 39.2778 6.34668 40.4497 6.34668ZM40.3716 12.1436C40.6997 12.1436 41.02 12.1019 41.3325 12.0186C41.645 11.93 41.9315 11.805 42.1919 11.6436C42.4575 11.4821 42.671 11.266 42.8325 10.9951C42.994 10.7191 43.0747 10.4118 43.0747 10.0732C43.0747 9.39616 42.8325 8.84147 42.3481 8.40918C41.869 7.97689 41.2361 7.76074 40.4497 7.76074C39.7153 7.76074 39.1033 7.97168 38.6138 8.39355C38.1294 8.81543 37.8872 9.34928 37.8872 9.99512C37.8872 10.6097 38.1216 11.1227 38.5903 11.5342C39.0643 11.9404 39.658 12.1436 40.3716 12.1436ZM43.8034 19.9795L50.2019 5.58105H51.5925L45.1941 19.9795H43.8034ZM56.4072 10.5732C57.4801 10.5732 58.3759 10.9144 59.0947 11.5967C59.8186 12.279 60.1806 13.1279 60.1806 14.1436C60.1806 15.1852 59.7926 16.0524 59.0166 16.7451C58.2457 17.4326 57.2692 17.7764 56.0869 17.7764C55.3838 17.7764 54.6989 17.6357 54.0322 17.3545C53.3707 17.0732 52.7796 16.6644 52.2588 16.1279L53.0166 14.9717C53.3916 15.4092 53.8395 15.7503 54.3603 15.9951C54.8864 16.2399 55.4306 16.3623 55.9931 16.3623C56.7796 16.3623 57.4228 16.1488 57.9228 15.7217C58.428 15.2894 58.6806 14.7529 58.6806 14.1123C58.6806 13.4873 58.4463 12.9665 57.9775 12.5498C57.514 12.1279 56.9306 11.917 56.2275 11.917C55.8056 11.917 55.3994 11.9951 55.0088 12.1514C54.6233 12.3024 54.2952 12.5081 54.0244 12.7686L52.7431 12.3623L53.2822 6.54199H59.4306V7.91699H54.5009L54.1963 11.2139C54.8421 10.7868 55.5791 10.5732 56.4072 10.5732ZM73.7163 17.5811L72.6459 14.9092H67.2397L66.1694 17.5811H64.5991L69.0913 6.54199H70.8413L75.3334 17.5811H73.7163ZM67.7866 13.5498H72.1069L69.9428 8.12793L67.7866 13.5498ZM81.8512 9.4248H83.3903L79.8044 17.5811H78.3434L74.7653 9.4248H76.3434L79.1012 15.9326L81.8512 9.4248ZM92.0956 13.5029C92.0956 13.5811 92.0826 13.7842 92.0566 14.1123H85.0331C85.1738 14.8311 85.5149 15.4118 86.0566 15.8545C86.6034 16.292 87.2701 16.5107 88.0566 16.5107C88.6399 16.5107 89.1764 16.3883 89.6659 16.1436C90.1555 15.8936 90.5383 15.5732 90.8144 15.1826L91.7597 15.9951C91.3482 16.5472 90.8144 16.9821 90.1581 17.2998C89.5071 17.6175 88.7909 17.7764 88.0097 17.7764C86.7336 17.7764 85.6711 17.3649 84.8222 16.542C83.9732 15.7191 83.5488 14.6956 83.5488 13.4717C83.5488 12.68 83.7336 11.9613 84.1034 11.3154C84.4784 10.6644 84.9941 10.154 85.6503 9.78418C86.3066 9.41439 87.0357 9.22949 87.8378 9.22949C88.6347 9.22949 89.3586 9.41439 90.0097 9.78418C90.6607 10.154 91.1711 10.667 91.5409 11.3232C91.9107 11.9743 92.0956 12.7008 92.0956 13.5029ZM87.8222 10.4951C87.1139 10.4951 86.5019 10.7165 85.9863 11.1592C85.4706 11.5967 85.1477 12.1644 85.0175 12.8623H90.6347C90.5045 12.154 90.1816 11.5837 89.6659 11.1514C89.1503 10.7139 88.5357 10.4951 87.8222 10.4951ZM97.7775 9.29199H98.0509V10.7139H97.7775C96.9181 10.7139 96.2384 10.9665 95.7384 11.4717C95.2436 11.9717 94.9962 12.6488 94.9962 13.5029V17.5811H93.6212V9.4248H94.9962V10.8311C95.6369 9.80501 96.564 9.29199 97.7775 9.29199ZM105.678 9.4248H107.053V17.5811H105.678V16.1123C105.329 16.6331 104.879 17.042 104.327 17.3389C103.78 17.6305 103.173 17.7764 102.506 17.7764C101.741 17.7764 101.045 17.5915 100.42 17.2217C99.7953 16.8467 99.3057 16.3337 98.9516 15.6826C98.6026 15.0264 98.4281 14.2998 98.4281 13.5029C98.4281 12.7061 98.6026 11.9821 98.9516 11.3311C99.3057 10.6748 99.7953 10.1618 100.42 9.79199C101.045 9.41699 101.741 9.22949 102.506 9.22949C103.173 9.22949 103.78 9.37793 104.327 9.6748C104.879 9.96647 105.329 10.3727 105.678 10.8936V9.4248ZM102.764 16.4482C103.597 16.4482 104.29 16.167 104.842 15.6045C105.399 15.042 105.678 14.3415 105.678 13.5029C105.678 12.6644 105.399 11.9639 104.842 11.4014C104.29 10.8389 103.597 10.5576 102.764 10.5576C101.926 10.5576 101.228 10.8389 100.67 11.4014C100.113 11.9639 99.8344 12.6644 99.8344 13.5029C99.8344 14.3415 100.113 15.042 100.67 15.6045C101.228 16.167 101.926 16.4482 102.764 16.4482ZM114.29 17.792C115.066 17.792 115.704 17.9873 116.204 18.3779C116.704 18.7686 116.993 19.3024 117.071 19.9795L115.649 20.3467C115.633 19.9821 115.477 19.6878 115.18 19.4639C114.889 19.2451 114.511 19.1357 114.048 19.1357H111.04C110.363 19.1357 109.813 18.9561 109.391 18.5967C108.975 18.2373 108.766 17.7712 108.766 17.1982C108.766 16.8128 108.855 16.4535 109.032 16.1201C109.214 15.7816 109.462 15.5264 109.774 15.3545C109.42 15.0264 109.144 14.641 108.946 14.1982C108.753 13.7555 108.657 13.279 108.657 12.7686C108.657 11.7581 109.011 10.917 109.719 10.2451C110.433 9.56803 111.321 9.22949 112.383 9.22949C113.107 9.22949 113.774 9.40658 114.383 9.76074C114.462 9.32845 114.667 8.9847 115.001 8.72949C115.334 8.47428 115.748 8.34668 116.243 8.34668H116.868V9.62793H116.321C116.024 9.62793 115.782 9.71126 115.594 9.87793C115.412 10.0394 115.318 10.2555 115.313 10.5264C115.844 11.1566 116.11 11.904 116.11 12.7686C116.11 13.7738 115.753 14.6175 115.04 15.2998C114.326 15.9769 113.441 16.3154 112.383 16.3154C111.743 16.3154 111.167 16.1878 110.657 15.9326C110.495 16.0368 110.368 16.1722 110.274 16.3389C110.186 16.5003 110.141 16.6696 110.141 16.8467C110.141 17.1331 110.248 17.3623 110.462 17.5342C110.675 17.7061 110.954 17.792 111.298 17.792H114.29ZM112.383 10.542C111.722 10.542 111.173 10.7555 110.735 11.1826C110.298 11.6045 110.079 12.1331 110.079 12.7686C110.079 13.4092 110.298 13.943 110.735 14.3701C111.178 14.792 111.727 15.0029 112.383 15.0029C113.04 15.0029 113.587 14.792 114.024 14.3701C114.467 13.943 114.688 13.4092 114.688 12.7686C114.688 12.1331 114.467 11.6045 114.024 11.1826C113.587 10.7555 113.04 10.542 112.383 10.542ZM125.839 13.5029C125.839 13.5811 125.826 13.7842 125.8 14.1123H118.776C118.917 14.8311 119.258 15.4118 119.8 15.8545C120.347 16.292 121.013 16.5107 121.8 16.5107C122.383 16.5107 122.919 16.3883 123.409 16.1436C123.899 15.8936 124.281 15.5732 124.558 15.1826L125.503 15.9951C125.091 16.5472 124.558 16.9821 123.901 17.2998C123.25 17.6175 122.534 17.7764 121.753 17.7764C120.477 17.7764 119.414 17.3649 118.565 16.542C117.716 15.7191 117.292 14.6956 117.292 13.4717C117.292 12.68 117.477 11.9613 117.847 11.3154C118.222 10.6644 118.737 10.154 119.393 9.78418C120.05 9.41439 120.779 9.22949 121.581 9.22949C122.378 9.22949 123.102 9.41439 123.753 9.78418C124.404 10.154 124.914 10.667 125.284 11.3232C125.654 11.9743 125.839 12.7008 125.839 13.5029ZM121.565 10.4951C120.857 10.4951 120.245 10.7165 119.729 11.1592C119.214 11.5967 118.891 12.1644 118.761 12.8623H124.378C124.248 12.154 123.925 11.5837 123.409 11.1514C122.893 10.7139 122.279 10.4951 121.565 10.4951ZM137.585 17.5811L134.288 13.1982H132.671V17.5811H131.202V6.54199H135.679C136.658 6.54199 137.476 6.8623 138.132 7.50293C138.794 8.14355 139.124 8.94303 139.124 9.90137C139.124 10.792 138.827 11.5472 138.234 12.167C137.645 12.7816 136.9 13.1201 135.999 13.1826L139.359 17.5811H137.585ZM132.671 7.91699V11.917H135.648C136.21 11.917 136.679 11.7269 137.054 11.3467C137.429 10.9665 137.617 10.4899 137.617 9.91699C137.617 9.34408 137.429 8.86751 137.054 8.4873C136.679 8.1071 136.21 7.91699 135.648 7.91699H132.671ZM147.306 9.4248H148.681V17.5811H147.306V16.1123C146.957 16.6331 146.507 17.042 145.955 17.3389C145.408 17.6305 144.801 17.7764 144.134 17.7764C143.369 17.7764 142.673 17.5915 142.048 17.2217C141.423 16.8467 140.934 16.3337 140.58 15.6826C140.231 15.0264 140.056 14.2998 140.056 13.5029C140.056 12.7061 140.231 11.9821 140.58 11.3311C140.934 10.6748 141.423 10.1618 142.048 9.79199C142.673 9.41699 143.369 9.22949 144.134 9.22949C144.801 9.22949 145.408 9.37793 145.955 9.6748C146.507 9.96647 146.957 10.3727 147.306 10.8936V9.4248ZM144.392 16.4482C145.226 16.4482 145.918 16.167 146.47 15.6045C147.028 15.042 147.306 14.3415 147.306 13.5029C147.306 12.6644 147.028 11.9639 146.47 11.4014C145.918 10.8389 145.226 10.5576 144.392 10.5576C143.554 10.5576 142.856 10.8389 142.298 11.4014C141.741 11.9639 141.463 12.6644 141.463 13.5029C141.463 14.3415 141.741 15.042 142.298 15.6045C142.856 16.167 143.554 16.4482 144.392 16.4482ZM155.488 10.667H153.035V15.1826C153.035 16.0264 153.473 16.4482 154.348 16.4482C154.728 16.4482 155.108 16.3467 155.488 16.1436V17.4404C155.077 17.6644 154.6 17.7764 154.058 17.7764C153.272 17.7764 152.676 17.5706 152.269 17.1592C151.863 16.7477 151.66 16.1618 151.66 15.4014V10.667H150.191V9.4248H151.66V7.22949H153.035V9.4248H155.488V10.667ZM157.701 7.79199C157.436 7.79199 157.214 7.70605 157.037 7.53418C156.86 7.3571 156.772 7.13835 156.772 6.87793C156.772 6.6123 156.86 6.39355 157.037 6.22168C157.214 6.0498 157.436 5.96387 157.701 5.96387C157.962 5.96387 158.178 6.0498 158.35 6.22168C158.522 6.39355 158.607 6.6123 158.607 6.87793C158.607 7.13835 158.519 7.3571 158.342 7.53418C158.17 7.70605 157.956 7.79199 157.701 7.79199ZM157.014 17.5811V9.4248H158.389V17.5811H157.014ZM164.789 9.22949C165.784 9.22949 166.584 9.53158 167.188 10.1357C167.797 10.7399 168.102 11.542 168.102 12.542V17.5811H166.727V12.9717C166.727 12.2425 166.511 11.6592 166.078 11.2217C165.646 10.779 165.068 10.5576 164.344 10.5576C163.589 10.5576 162.985 10.7816 162.532 11.2295C162.078 11.6774 161.852 12.2686 161.852 13.0029V17.5811H160.477V9.4248H161.852V10.667C162.513 9.70866 163.492 9.22949 164.789 9.22949ZM175.229 17.792C176.005 17.792 176.643 17.9873 177.143 18.3779C177.643 18.7686 177.932 19.3024 178.01 19.9795L176.588 20.3467C176.573 19.9821 176.417 19.6878 176.12 19.4639C175.828 19.2451 175.45 19.1357 174.987 19.1357H171.979C171.302 19.1357 170.753 18.9561 170.331 18.5967C169.914 18.2373 169.706 17.7712 169.706 17.1982C169.706 16.8128 169.794 16.4535 169.971 16.1201C170.154 15.7816 170.401 15.5264 170.713 15.3545C170.359 15.0264 170.083 14.641 169.885 14.1982C169.693 13.7555 169.596 13.279 169.596 12.7686C169.596 11.7581 169.95 10.917 170.659 10.2451C171.372 9.56803 172.26 9.22949 173.323 9.22949C174.047 9.22949 174.713 9.40658 175.323 9.76074C175.401 9.32845 175.607 8.9847 175.94 8.72949C176.273 8.47428 176.687 8.34668 177.182 8.34668H177.807V9.62793H177.26C176.963 9.62793 176.721 9.71126 176.534 9.87793C176.351 10.0394 176.258 10.2555 176.253 10.5264C176.784 11.1566 177.049 11.904 177.049 12.7686C177.049 13.7738 176.693 14.6175 175.979 15.2998C175.266 15.9769 174.38 16.3154 173.323 16.3154C172.682 16.3154 172.107 16.1878 171.596 15.9326C171.435 16.0368 171.307 16.1722 171.213 16.3389C171.125 16.5003 171.081 16.6696 171.081 16.8467C171.081 17.1331 171.187 17.3623 171.401 17.5342C171.614 17.7061 171.893 17.792 172.237 17.792H175.229ZM173.323 10.542C172.661 10.542 172.112 10.7555 171.674 11.1826C171.237 11.6045 171.018 12.1331 171.018 12.7686C171.018 13.4092 171.237 13.943 171.674 14.3701C172.117 14.792 172.667 15.0029 173.323 15.0029C173.979 15.0029 174.526 14.792 174.963 14.3701C175.406 13.943 175.628 13.4092 175.628 12.7686C175.628 12.1331 175.406 11.6045 174.963 11.1826C174.526 10.7555 173.979 10.542 173.323 10.542ZM181.512 17.7764C180.195 17.7764 179.091 17.3493 178.2 16.4951L178.966 15.5029C179.632 16.1852 180.473 16.5264 181.489 16.5264C182.041 16.5264 182.494 16.4248 182.848 16.2217C183.203 16.0133 183.38 15.7295 183.38 15.3701C183.38 15.2191 183.341 15.0837 183.262 14.9639C183.19 14.8389 183.101 14.7373 182.997 14.6592C182.898 14.5811 182.747 14.5055 182.544 14.4326C182.346 14.3545 182.171 14.2972 182.02 14.2607C181.874 14.2191 181.666 14.1644 181.395 14.0967C181.145 14.0342 180.947 13.9847 180.802 13.9482C180.656 13.9066 180.466 13.8441 180.231 13.7607C180.002 13.6774 179.815 13.5967 179.669 13.5186C179.528 13.4404 179.372 13.3389 179.2 13.2139C179.033 13.0837 178.901 12.9482 178.802 12.8076C178.708 12.6618 178.627 12.4899 178.559 12.292C178.497 12.0889 178.466 11.8675 178.466 11.6279C178.466 11.1175 178.611 10.6774 178.903 10.3076C179.195 9.93783 179.572 9.66699 180.036 9.49512C180.499 9.31803 181.018 9.22949 181.591 9.22949C182.768 9.22949 183.765 9.60189 184.583 10.3467L183.809 11.3545C183.21 10.7712 182.476 10.4795 181.606 10.4795C181.111 10.4795 180.7 10.5732 180.372 10.7607C180.044 10.9482 179.88 11.2113 179.88 11.5498C179.88 11.7061 179.919 11.8467 179.997 11.9717C180.075 12.0915 180.164 12.1904 180.262 12.2686C180.367 12.3467 180.523 12.4248 180.731 12.5029C180.94 12.5758 181.114 12.6331 181.255 12.6748C181.401 12.7113 181.614 12.7633 181.895 12.8311C182.14 12.8883 182.335 12.9378 182.481 12.9795C182.632 13.016 182.822 13.0732 183.052 13.1514C183.281 13.2295 183.466 13.3076 183.606 13.3857C183.752 13.4587 183.908 13.5576 184.075 13.6826C184.242 13.8076 184.372 13.9404 184.466 14.0811C184.559 14.2217 184.637 14.3936 184.7 14.5967C184.768 14.7946 184.802 15.0107 184.802 15.2451C184.802 16.0316 184.492 16.6514 183.872 17.1045C183.252 17.5524 182.466 17.7764 181.512 17.7764Z" fill="black"/>
</svg>
