<svg width="175" height="25" viewBox="0 0 175 25" fill="none" xmlns="http://www.w3.org/2000/svg">
<path d="M17.8099 5.57105V6.31105L14.2699 4.26105C12.9299 3.49105 11.0599 3.49105 9.72994 4.26105L6.18994 6.32105V5.57105C6.18994 3.32105 7.41994 2.08105 9.66994 2.08105H14.3299C16.5799 2.08105 17.8099 3.32105 17.8099 5.57105Z" fill="#292D32"/>
<path d="M17.84 8.05129L17.7 7.98129L16.34 7.20129L13.52 5.57129C12.66 5.07129 11.34 5.07129 10.48 5.57129L7.66 7.19129L6.3 7.99129L6.12 8.08129C4.37 9.26129 4.25 9.48129 4.25 11.3713V15.8913C4.25 17.7813 4.37 18.0013 6.16 19.2113L10.48 21.7013C10.91 21.9613 11.45 22.0713 12 22.0713C12.54 22.0713 13.09 21.9513 13.52 21.7013L17.88 19.1813C19.64 18.0013 19.75 17.7913 19.75 15.8913V11.3713C19.75 9.48129 19.63 9.26129 17.84 8.05129ZM14.79 13.5813L14.18 14.3313C14.08 14.4413 14.01 14.6513 14.02 14.8013L14.08 15.7613C14.12 16.3513 13.7 16.6513 13.15 16.4413L12.26 16.0813C12.12 16.0313 11.89 16.0313 11.75 16.0813L10.86 16.4313C10.31 16.6513 9.89 16.3413 9.93 15.7513L9.99 14.7913C10 14.6413 9.93 14.4313 9.83 14.3213L9.21 13.5813C8.83 13.1313 9 12.6313 9.57 12.4813L10.5 12.2413C10.65 12.2013 10.82 12.0613 10.9 11.9413L11.42 11.1413C11.74 10.6413 12.25 10.6413 12.58 11.1413L13.1 11.9413C13.18 12.0713 13.36 12.2013 13.5 12.2413L14.43 12.4813C15 12.6313 15.17 13.1313 14.79 13.5813Z" fill="#292D32"/>
<path d="M26.7656 16.2061H31.8906V17.5811H24.7188V16.4092L28.9141 11.8545C29.2995 11.4326 29.5964 11.042 29.8047 10.6826C30.0182 10.318 30.125 9.95085 30.125 9.58105C30.125 9.06022 29.9323 8.63574 29.5469 8.30762C29.1667 7.97428 28.6875 7.80762 28.1094 7.80762C27.6042 7.80762 27.1354 7.94043 26.7031 8.20605C26.2708 8.47168 25.8984 8.83887 25.5859 9.30762L24.5625 8.37793C24.9375 7.75814 25.4453 7.26595 26.0859 6.90137C26.7266 6.53158 27.4297 6.34668 28.1953 6.34668C29.2005 6.34668 30.0234 6.64355 30.6641 7.2373C31.3099 7.82585 31.6328 8.58105 31.6328 9.50293C31.6328 10.0758 31.5078 10.6019 31.2578 11.0811C31.0078 11.555 30.6536 12.042 30.1953 12.542L26.7656 16.2061ZM37.3147 10.5732C38.3876 10.5732 39.2834 10.9144 40.0022 11.5967C40.7261 12.279 41.0881 13.1279 41.0881 14.1436C41.0881 15.1852 40.7001 16.0524 39.9241 16.7451C39.1532 17.4326 38.1767 17.7764 36.9944 17.7764C36.2913 17.7764 35.6064 17.6357 34.9397 17.3545C34.2782 17.0732 33.6871 16.6644 33.1663 16.1279L33.9241 14.9717C34.2991 15.4092 34.747 15.7503 35.2678 15.9951C35.7939 16.2399 36.3381 16.3623 36.9006 16.3623C37.6871 16.3623 38.3303 16.1488 38.8303 15.7217C39.3355 15.2894 39.5881 14.7529 39.5881 14.1123C39.5881 13.4873 39.3538 12.9665 38.885 12.5498C38.4215 12.1279 37.8381 11.917 37.135 11.917C36.7131 11.917 36.3069 11.9951 35.9163 12.1514C35.5308 12.3024 35.2027 12.5081 34.9319 12.7686L33.6506 12.3623L34.1897 6.54199H40.3381V7.91699H35.4084L35.1038 11.2139C35.7496 10.7868 36.4866 10.5732 37.3147 10.5732ZM48.9966 12.2373V13.4873H46.3716V16.1279H45.0903V13.4873H42.4653V12.2373H45.0903V9.59668H46.3716V12.2373H48.9966ZM67.8603 6.54199H69.3838L65.8603 17.5811H64.3759L61.6338 8.68262L58.8994 17.5811H57.415L53.8916 6.54199H55.4463L58.1963 15.6436L61.0009 6.54199H62.3056L65.1103 15.6436L67.8603 6.54199ZM71.4094 7.79199C71.1437 7.79199 70.9224 7.70605 70.7453 7.53418C70.5682 7.3571 70.4797 7.13835 70.4797 6.87793C70.4797 6.6123 70.5682 6.39355 70.7453 6.22168C70.9224 6.0498 71.1437 5.96387 71.4094 5.96387C71.6698 5.96387 71.8859 6.0498 72.0578 6.22168C72.2297 6.39355 72.3156 6.6123 72.3156 6.87793C72.3156 7.13835 72.2271 7.3571 72.05 7.53418C71.8781 7.70605 71.6646 7.79199 71.4094 7.79199ZM70.7219 17.5811V9.4248H72.0969V17.5811H70.7219ZM78.4975 9.22949C79.4923 9.22949 80.2918 9.53158 80.8959 10.1357C81.5053 10.7399 81.81 11.542 81.81 12.542V17.5811H80.435V12.9717C80.435 12.2425 80.2189 11.6592 79.7866 11.2217C79.3543 10.779 78.7761 10.5576 78.0522 10.5576C77.297 10.5576 76.6928 10.7816 76.2397 11.2295C75.7866 11.6774 75.56 12.2686 75.56 13.0029V17.5811H74.185V9.4248H75.56V10.667C76.2215 9.70866 77.2006 9.22949 78.4975 9.22949ZM88.1169 9.22949C89.1117 9.22949 89.9111 9.53158 90.5153 10.1357C91.1247 10.7399 91.4294 11.542 91.4294 12.542V17.5811H90.0544V12.9717C90.0544 12.2425 89.8382 11.6592 89.4059 11.2217C88.9736 10.779 88.3955 10.5576 87.6716 10.5576C86.9164 10.5576 86.3122 10.7816 85.8591 11.2295C85.4059 11.6774 85.1794 12.2686 85.1794 13.0029V17.5811H83.8044V9.4248H85.1794V10.667C85.8408 9.70866 86.82 9.22949 88.1169 9.22949ZM94.1113 7.79199C93.8456 7.79199 93.6243 7.70605 93.4472 7.53418C93.2701 7.3571 93.1816 7.13835 93.1816 6.87793C93.1816 6.6123 93.2701 6.39355 93.4472 6.22168C93.6243 6.0498 93.8456 5.96387 94.1113 5.96387C94.3717 5.96387 94.5878 6.0498 94.7597 6.22168C94.9316 6.39355 95.0175 6.6123 95.0175 6.87793C95.0175 7.13835 94.929 7.3571 94.7519 7.53418C94.58 7.70605 94.3665 7.79199 94.1113 7.79199ZM93.4238 17.5811V9.4248H94.7988V17.5811H93.4238ZM101.199 9.22949C102.194 9.22949 102.994 9.53158 103.598 10.1357C104.207 10.7399 104.512 11.542 104.512 12.542V17.5811H103.137V12.9717C103.137 12.2425 102.921 11.6592 102.488 11.2217C102.056 10.779 101.478 10.5576 100.754 10.5576C99.9989 10.5576 99.3947 10.7816 98.9416 11.2295C98.4884 11.6774 98.2619 12.2686 98.2619 13.0029V17.5811H96.8869V9.4248H98.2619V10.667C98.9233 9.70866 99.9025 9.22949 101.199 9.22949ZM111.639 17.792C112.415 17.792 113.053 17.9873 113.553 18.3779C114.053 18.7686 114.342 19.3024 114.42 19.9795L112.998 20.3467C112.983 19.9821 112.827 19.6878 112.53 19.4639C112.238 19.2451 111.86 19.1357 111.397 19.1357H108.389C107.712 19.1357 107.162 18.9561 106.741 18.5967C106.324 18.2373 106.116 17.7712 106.116 17.1982C106.116 16.8128 106.204 16.4535 106.381 16.1201C106.564 15.7816 106.811 15.5264 107.123 15.3545C106.769 15.0264 106.493 14.641 106.295 14.1982C106.103 13.7555 106.006 13.279 106.006 12.7686C106.006 11.7581 106.36 10.917 107.069 10.2451C107.782 9.56803 108.67 9.22949 109.733 9.22949C110.457 9.22949 111.123 9.40658 111.733 9.76074C111.811 9.32845 112.017 8.9847 112.35 8.72949C112.683 8.47428 113.097 8.34668 113.592 8.34668H114.217V9.62793H113.67C113.373 9.62793 113.131 9.71126 112.944 9.87793C112.761 10.0394 112.668 10.2555 112.662 10.5264C113.194 11.1566 113.459 11.904 113.459 12.7686C113.459 13.7738 113.103 14.6175 112.389 15.2998C111.676 15.9769 110.79 16.3154 109.733 16.3154C109.092 16.3154 108.517 16.1878 108.006 15.9326C107.845 16.0368 107.717 16.1722 107.623 16.3389C107.535 16.5003 107.491 16.6696 107.491 16.8467C107.491 17.1331 107.597 17.3623 107.811 17.5342C108.024 17.7061 108.303 17.792 108.647 17.792H111.639ZM109.733 10.542C109.071 10.542 108.522 10.7555 108.084 11.1826C107.647 11.6045 107.428 12.1331 107.428 12.7686C107.428 13.4092 107.647 13.943 108.084 14.3701C108.527 14.792 109.077 15.0029 109.733 15.0029C110.389 15.0029 110.936 14.792 111.373 14.3701C111.816 13.943 112.037 13.4092 112.037 12.7686C112.037 12.1331 111.816 11.6045 111.373 11.1826C110.936 10.7555 110.389 10.542 109.733 10.542ZM127.245 17.5811L126.175 14.9092H120.768L119.698 17.5811H118.128L122.62 6.54199H124.37L128.862 17.5811H127.245ZM121.315 13.5498H125.636L123.472 8.12793L121.315 13.5498ZM140.208 9.4248H141.716L138.724 17.5811H137.286L135.028 11.0498L132.771 17.5811H131.333L128.341 9.4248H129.888L132.099 15.9014L134.341 9.4248H135.747L138.005 15.917L140.208 9.4248ZM149.202 9.4248H150.577V17.5811H149.202V16.1123C148.854 16.6331 148.403 17.042 147.851 17.3389C147.304 17.6305 146.697 17.7764 146.031 17.7764C145.265 17.7764 144.57 17.5915 143.945 17.2217C143.32 16.8467 142.83 16.3337 142.476 15.6826C142.127 15.0264 141.952 14.2998 141.952 13.5029C141.952 12.7061 142.127 11.9821 142.476 11.3311C142.83 10.6748 143.32 10.1618 143.945 9.79199C144.57 9.41699 145.265 9.22949 146.031 9.22949C146.697 9.22949 147.304 9.37793 147.851 9.6748C148.403 9.96647 148.854 10.3727 149.202 10.8936V9.4248ZM146.288 16.4482C147.122 16.4482 147.814 16.167 148.367 15.6045C148.924 15.042 149.202 14.3415 149.202 13.5029C149.202 12.6644 148.924 11.9639 148.367 11.4014C147.814 10.8389 147.122 10.5576 146.288 10.5576C145.45 10.5576 144.752 10.8389 144.195 11.4014C143.637 11.9639 143.359 12.6644 143.359 13.5029C143.359 14.3415 143.637 15.042 144.195 15.6045C144.752 16.167 145.45 16.4482 146.288 16.4482ZM156.838 9.29199H157.111V10.7139H156.838C155.978 10.7139 155.298 10.9665 154.798 11.4717C154.304 11.9717 154.056 12.6488 154.056 13.5029V17.5811H152.681V9.4248H154.056V10.8311C154.697 9.80501 155.624 9.29199 156.838 9.29199ZM164.738 6.05762H166.113V17.5811H164.738V16.1123C164.389 16.6331 163.939 17.042 163.387 17.3389C162.84 17.6305 162.233 17.7764 161.566 17.7764C160.801 17.7764 160.105 17.5915 159.48 17.2217C158.855 16.8467 158.366 16.3337 158.012 15.6826C157.663 15.0264 157.488 14.2998 157.488 13.5029C157.488 12.7061 157.663 11.9821 158.012 11.3311C158.366 10.6748 158.855 10.1618 159.48 9.79199C160.105 9.41699 160.801 9.22949 161.566 9.22949C162.233 9.22949 162.84 9.37793 163.387 9.6748C163.939 9.96647 164.389 10.3727 164.738 10.8936V6.05762ZM161.824 16.4482C162.657 16.4482 163.35 16.167 163.902 15.6045C164.459 15.042 164.738 14.3415 164.738 13.5029C164.738 12.6644 164.459 11.9639 163.902 11.4014C163.35 10.8389 162.657 10.5576 161.824 10.5576C160.986 10.5576 160.288 10.8389 159.73 11.4014C159.173 11.9639 158.894 12.6644 158.894 13.5029C158.894 14.3415 159.173 15.042 159.73 15.6045C160.288 16.167 160.986 16.4482 161.824 16.4482ZM170.889 17.7764C169.571 17.7764 168.467 17.3493 167.576 16.4951L168.342 15.5029C169.009 16.1852 169.85 16.5264 170.865 16.5264C171.417 16.5264 171.871 16.4248 172.225 16.2217C172.579 16.0133 172.756 15.7295 172.756 15.3701C172.756 15.2191 172.717 15.0837 172.639 14.9639C172.566 14.8389 172.477 14.7373 172.373 14.6592C172.274 14.5811 172.123 14.5055 171.92 14.4326C171.722 14.3545 171.548 14.2972 171.397 14.2607C171.251 14.2191 171.042 14.1644 170.772 14.0967C170.522 14.0342 170.324 13.9847 170.178 13.9482C170.032 13.9066 169.842 13.8441 169.607 13.7607C169.378 13.6774 169.191 13.5967 169.045 13.5186C168.904 13.4404 168.748 13.3389 168.576 13.2139C168.41 13.0837 168.277 12.9482 168.178 12.8076C168.084 12.6618 168.003 12.4899 167.936 12.292C167.873 12.0889 167.842 11.8675 167.842 11.6279C167.842 11.1175 167.988 10.6774 168.279 10.3076C168.571 9.93783 168.949 9.66699 169.412 9.49512C169.876 9.31803 170.394 9.22949 170.967 9.22949C172.144 9.22949 173.141 9.60189 173.959 10.3467L173.186 11.3545C172.587 10.7712 171.852 10.4795 170.982 10.4795C170.488 10.4795 170.076 10.5732 169.748 10.7607C169.42 10.9482 169.256 11.2113 169.256 11.5498C169.256 11.7061 169.295 11.8467 169.373 11.9717C169.451 12.0915 169.54 12.1904 169.639 12.2686C169.743 12.3467 169.899 12.4248 170.107 12.5029C170.316 12.5758 170.49 12.6331 170.631 12.6748C170.777 12.7113 170.99 12.7633 171.272 12.8311C171.516 12.8883 171.712 12.9378 171.857 12.9795C172.009 13.016 172.199 13.0732 172.428 13.1514C172.657 13.2295 172.842 13.3076 172.982 13.3857C173.128 13.4587 173.285 13.5576 173.451 13.6826C173.618 13.8076 173.748 13.9404 173.842 14.0811C173.936 14.2217 174.014 14.3936 174.076 14.5967C174.144 14.7946 174.178 15.0107 174.178 15.2451C174.178 16.0316 173.868 16.6514 173.248 17.1045C172.628 17.5524 171.842 17.7764 170.889 17.7764Z" fill="black"/>
</svg>
