<svg width="223" height="25" viewBox="0 0 223 25" fill="none" xmlns="http://www.w3.org/2000/svg">
<path d="M18.54 4.2009L13.04 2.1409C12.47 1.9309 11.54 1.9309 10.97 2.1409L5.47005 4.2009C4.41005 4.6009 3.55005 5.8409 3.55005 6.9709V15.0709C3.55005 15.8809 4.08005 16.9509 4.73005 17.4309L10.23 21.5409C11.2 22.2709 12.79 22.2709 13.76 21.5409L19.26 17.4309C19.91 16.9409 20.4401 15.8809 20.4401 15.0709V6.9709C20.4501 5.8409 19.59 4.6009 18.54 4.2009ZM15.48 9.8009L11.18 14.1009C11.03 14.2509 10.84 14.3209 10.65 14.3209C10.46 14.3209 10.27 14.2509 10.12 14.1009L8.52005 12.4809C8.23005 12.1909 8.23005 11.7109 8.52005 11.4209C8.81005 11.1309 9.29005 11.1309 9.58005 11.4209L10.66 12.5009L14.43 8.7309C14.72 8.4409 15.2 8.4409 15.49 8.7309C15.78 9.0209 15.78 9.5109 15.48 9.8009Z" fill="#292D32"/>
<path d="M30.4766 17.7764C29.6641 17.7764 28.901 17.6305 28.1875 17.3389C27.474 17.042 26.862 16.641 26.3516 16.1357C25.8411 15.6305 25.4375 15.0264 25.1406 14.3232C24.849 13.6149 24.7031 12.8597 24.7031 12.0576C24.7031 10.9899 24.9531 10.0212 25.4531 9.15137C25.9531 8.27637 26.6432 7.59147 27.5234 7.09668C28.4089 6.59668 29.3932 6.34668 30.4766 6.34668C31.4818 6.34668 32.4062 6.57064 33.25 7.01855C34.0938 7.46126 34.776 8.06543 35.2969 8.83105L34.0312 9.6123C33.651 9.03418 33.151 8.58105 32.5312 8.25293C31.9115 7.9248 31.2266 7.76074 30.4766 7.76074C29.8776 7.76074 29.3125 7.87012 28.7812 8.08887C28.2552 8.30762 27.8047 8.6071 27.4297 8.9873C27.0547 9.36751 26.7578 9.82324 26.5391 10.3545C26.3203 10.8857 26.2109 11.4535 26.2109 12.0576C26.2109 12.8597 26.3958 13.5915 26.7656 14.2529C27.1354 14.9092 27.6458 15.4248 28.2969 15.7998C28.9531 16.1748 29.6797 16.3623 30.4766 16.3623C31.2266 16.3623 31.9115 16.1982 32.5312 15.8701C33.151 15.542 33.651 15.0889 34.0312 14.5107L35.2969 15.292C34.776 16.0576 34.0938 16.6644 33.25 17.1123C32.4062 17.555 31.4818 17.7764 30.4766 17.7764ZM44.6663 13.5029C44.6663 13.5811 44.6532 13.7842 44.6272 14.1123H37.6038C37.7444 14.8311 38.0855 15.4118 38.6272 15.8545C39.1741 16.292 39.8407 16.5107 40.6272 16.5107C41.2105 16.5107 41.747 16.3883 42.2366 16.1436C42.7261 15.8936 43.109 15.5732 43.385 15.1826L44.3303 15.9951C43.9189 16.5472 43.385 16.9821 42.7288 17.2998C42.0777 17.6175 41.3616 17.7764 40.5803 17.7764C39.3043 17.7764 38.2418 17.3649 37.3928 16.542C36.5439 15.7191 36.1194 14.6956 36.1194 13.4717C36.1194 12.68 36.3043 11.9613 36.6741 11.3154C37.0491 10.6644 37.5647 10.154 38.2209 9.78418C38.8772 9.41439 39.6064 9.22949 40.4084 9.22949C41.2053 9.22949 41.9293 9.41439 42.5803 9.78418C43.2314 10.154 43.7418 10.667 44.1116 11.3232C44.4814 11.9743 44.6663 12.7008 44.6663 13.5029ZM40.3928 10.4951C39.6845 10.4951 39.0725 10.7165 38.5569 11.1592C38.0413 11.5967 37.7183 12.1644 37.5881 12.8623H43.2053C43.0751 12.154 42.7522 11.5837 42.2366 11.1514C41.7209 10.7139 41.1064 10.4951 40.3928 10.4951ZM50.3481 9.29199H50.6216V10.7139H50.3481C49.4888 10.7139 48.8091 10.9665 48.3091 11.4717C47.8143 11.9717 47.5669 12.6488 47.5669 13.5029V17.5811H46.1919V9.4248H47.5669V10.8311C48.2075 9.80501 49.1346 9.29199 50.3481 9.29199ZM56.6706 10.667H54.2175V15.1826C54.2175 16.0264 54.655 16.4482 55.53 16.4482C55.9102 16.4482 56.2904 16.3467 56.6706 16.1436V17.4404C56.2592 17.6644 55.7826 17.7764 55.2409 17.7764C54.4545 17.7764 53.8581 17.5706 53.4519 17.1592C53.0456 16.7477 52.8425 16.1618 52.8425 15.4014V10.667H51.3738V9.4248H52.8425V7.22949H54.2175V9.4248H56.6706V10.667ZM58.8838 7.79199C58.6181 7.79199 58.3968 7.70605 58.2197 7.53418C58.0426 7.3571 57.9541 7.13835 57.9541 6.87793C57.9541 6.6123 58.0426 6.39355 58.2197 6.22168C58.3968 6.0498 58.6181 5.96387 58.8838 5.96387C59.1442 5.96387 59.3603 6.0498 59.5322 6.22168C59.7041 6.39355 59.79 6.6123 59.79 6.87793C59.79 7.13835 59.7015 7.3571 59.5244 7.53418C59.3525 7.70605 59.139 7.79199 58.8838 7.79199ZM58.1963 17.5811V9.4248H59.5713V17.5811H58.1963ZM62.5187 8.28418C62.5187 7.50814 62.7219 6.91178 63.1281 6.49512C63.5344 6.07845 64.1307 5.87012 64.9172 5.87012C65.4328 5.87012 65.9042 5.9821 66.3312 6.20605V7.4248C65.9719 7.2321 65.5969 7.13574 65.2062 7.13574C64.3312 7.13574 63.8937 7.5498 63.8937 8.37793V9.4248H66.2453V10.667H63.8937V17.5811H62.5187V10.667H61.0344V9.4248H62.5187V8.28418ZM68.5969 7.79199C68.3312 7.79199 68.1099 7.70605 67.9328 7.53418C67.7609 7.3571 67.675 7.13835 67.675 6.87793C67.675 6.6123 67.7609 6.39355 67.9328 6.22168C68.1099 6.0498 68.3312 5.96387 68.5969 5.96387C68.8573 5.96387 69.0734 6.0498 69.2453 6.22168C69.4224 6.39355 69.5109 6.6123 69.5109 6.87793C69.5109 7.13835 69.4224 7.3571 69.2453 7.53418C69.0734 7.70605 68.8573 7.79199 68.5969 7.79199ZM67.9094 17.5811V9.4248H69.2844V17.5811H67.9094ZM79.4038 13.5029C79.4038 13.5811 79.3907 13.7842 79.3647 14.1123H72.3413C72.4819 14.8311 72.823 15.4118 73.3647 15.8545C73.9116 16.292 74.5782 16.5107 75.3647 16.5107C75.948 16.5107 76.4845 16.3883 76.9741 16.1436C77.4636 15.8936 77.8465 15.5732 78.1225 15.1826L79.0678 15.9951C78.6564 16.5472 78.1225 16.9821 77.4663 17.2998C76.8152 17.6175 76.0991 17.7764 75.3178 17.7764C74.0418 17.7764 72.9793 17.3649 72.1303 16.542C71.2814 15.7191 70.8569 14.6956 70.8569 13.4717C70.8569 12.68 71.0418 11.9613 71.4116 11.3154C71.7866 10.6644 72.3022 10.154 72.9584 9.78418C73.6147 9.41439 74.3439 9.22949 75.1459 9.22949C75.9428 9.22949 76.6668 9.41439 77.3178 9.78418C77.9689 10.154 78.4793 10.667 78.8491 11.3232C79.2189 11.9743 79.4038 12.7008 79.4038 13.5029ZM75.1303 10.4951C74.422 10.4951 73.81 10.7165 73.2944 11.1592C72.7788 11.5967 72.4558 12.1644 72.3256 12.8623H77.9428C77.8126 12.154 77.4897 11.5837 76.9741 11.1514C76.4584 10.7139 75.8439 10.4951 75.1303 10.4951ZM87.6794 6.05762H89.0544V17.5811H87.6794V16.1123C87.3304 16.6331 86.8799 17.042 86.3278 17.3389C85.7809 17.6305 85.1742 17.7764 84.5075 17.7764C83.7419 17.7764 83.0466 17.5915 82.4216 17.2217C81.7966 16.8467 81.307 16.3337 80.9528 15.6826C80.6039 15.0264 80.4294 14.2998 80.4294 13.5029C80.4294 12.7061 80.6039 11.9821 80.9528 11.3311C81.307 10.6748 81.7966 10.1618 82.4216 9.79199C83.0466 9.41699 83.7419 9.22949 84.5075 9.22949C85.1742 9.22949 85.7809 9.37793 86.3278 9.6748C86.8799 9.96647 87.3304 10.3727 87.6794 10.8936V6.05762ZM84.7653 16.4482C85.5986 16.4482 86.2914 16.167 86.8434 15.6045C87.4007 15.042 87.6794 14.3415 87.6794 13.5029C87.6794 12.6644 87.4007 11.9639 86.8434 11.4014C86.2914 10.8389 85.5986 10.5576 84.7653 10.5576C83.9268 10.5576 83.2289 10.8389 82.6716 11.4014C82.1143 11.9639 81.8356 12.6644 81.8356 13.5029C81.8356 14.3415 82.1143 15.042 82.6716 15.6045C83.2289 16.167 83.9268 16.4482 84.7653 16.4482ZM99.5431 6.54199C100.554 6.54199 101.395 6.87272 102.067 7.53418C102.738 8.19564 103.074 9.02116 103.074 10.0107C103.074 10.9951 102.736 11.818 102.059 12.4795C101.387 13.141 100.548 13.4717 99.5431 13.4717H96.465V17.5811H94.9962V6.54199H99.5431ZM99.5041 12.0967C100.098 12.0967 100.59 11.8988 100.981 11.5029C101.376 11.1071 101.574 10.6097 101.574 10.0107C101.574 9.41178 101.376 8.91439 100.981 8.51855C100.59 8.11751 100.098 7.91699 99.5041 7.91699H96.465V12.0967H99.5041ZM108.678 9.29199H108.952V10.7139H108.678C107.819 10.7139 107.139 10.9665 106.639 11.4717C106.144 11.9717 105.897 12.6488 105.897 13.5029V17.5811H104.522V9.4248H105.897V10.8311C106.537 9.80501 107.465 9.29199 108.678 9.29199ZM113.649 17.7764C112.837 17.7764 112.097 17.5915 111.43 17.2217C110.764 16.8467 110.24 16.3337 109.86 15.6826C109.485 15.0264 109.298 14.2998 109.298 13.5029C109.298 12.7061 109.485 11.9821 109.86 11.3311C110.24 10.6748 110.764 10.1618 111.43 9.79199C112.097 9.41699 112.837 9.22949 113.649 9.22949C114.878 9.22949 115.907 9.63835 116.735 10.4561C117.568 11.2738 117.985 12.2894 117.985 13.5029C117.985 14.7165 117.568 15.7321 116.735 16.5498C115.907 17.3675 114.878 17.7764 113.649 17.7764ZM113.649 16.4482C114.482 16.4482 115.175 16.167 115.727 15.6045C116.284 15.042 116.563 14.3415 116.563 13.5029C116.563 12.6644 116.284 11.9639 115.727 11.4014C115.175 10.8389 114.482 10.5576 113.649 10.5576C112.811 10.5576 112.113 10.8389 111.555 11.4014C110.998 11.9639 110.719 12.6644 110.719 13.5029C110.719 14.3415 110.998 15.042 111.555 15.6045C112.113 16.167 112.811 16.4482 113.649 16.4482ZM126.308 6.05762H127.683V17.5811H126.308V16.1123C125.959 16.6331 125.508 17.042 124.956 17.3389C124.409 17.6305 123.802 17.7764 123.136 17.7764C122.37 17.7764 121.675 17.5915 121.05 17.2217C120.425 16.8467 119.935 16.3337 119.581 15.6826C119.232 15.0264 119.058 14.2998 119.058 13.5029C119.058 12.7061 119.232 11.9821 119.581 11.3311C119.935 10.6748 120.425 10.1618 121.05 9.79199C121.675 9.41699 122.37 9.22949 123.136 9.22949C123.802 9.22949 124.409 9.37793 124.956 9.6748C125.508 9.96647 125.959 10.3727 126.308 10.8936V6.05762ZM123.393 16.4482C124.227 16.4482 124.919 16.167 125.472 15.6045C126.029 15.042 126.308 14.3415 126.308 13.5029C126.308 12.6644 126.029 11.9639 125.472 11.4014C124.919 10.8389 124.227 10.5576 123.393 10.5576C122.555 10.5576 121.857 10.8389 121.3 11.4014C120.742 11.9639 120.464 12.6644 120.464 13.5029C120.464 14.3415 120.742 15.042 121.3 15.6045C121.857 16.167 122.555 16.4482 123.393 16.4482ZM136.028 16.8389C135.357 17.4639 134.463 17.7764 133.349 17.7764C132.234 17.7764 131.338 17.4639 130.661 16.8389C129.989 16.2087 129.653 15.3779 129.653 14.3467V9.4248H131.028V14.1592C131.028 14.8467 131.239 15.4014 131.661 15.8232C132.088 16.2399 132.651 16.4482 133.349 16.4482C134.047 16.4482 134.607 16.2399 135.028 15.8232C135.456 15.4014 135.669 14.8467 135.669 14.1592V9.4248H137.044V14.3467C137.044 15.3779 136.706 16.2087 136.028 16.8389ZM142.835 17.7764C142.023 17.7764 141.283 17.5915 140.617 17.2217C139.95 16.8467 139.426 16.3337 139.046 15.6826C138.671 15.0264 138.484 14.2998 138.484 13.5029C138.484 12.7061 138.671 11.9821 139.046 11.3311C139.426 10.6748 139.95 10.1618 140.617 9.79199C141.283 9.41699 142.023 9.22949 142.835 9.22949C143.637 9.22949 144.367 9.41439 145.023 9.78418C145.679 10.1488 146.192 10.6462 146.562 11.2764L145.367 11.9951C145.117 11.5524 144.768 11.2035 144.32 10.9482C143.872 10.6878 143.377 10.5576 142.835 10.5576C141.997 10.5576 141.299 10.8389 140.742 11.4014C140.184 11.9639 139.906 12.6644 139.906 13.5029C139.906 14.3415 140.184 15.042 140.742 15.6045C141.299 16.167 141.997 16.4482 142.835 16.4482C143.377 16.4482 143.872 16.318 144.32 16.0576C144.768 15.7972 145.117 15.4456 145.367 15.0029L146.562 15.7217C146.192 16.3571 145.676 16.8597 145.015 17.2295C144.359 17.5941 143.632 17.7764 142.835 17.7764ZM152.603 10.667H150.15V15.1826C150.15 16.0264 150.588 16.4482 151.463 16.4482C151.843 16.4482 152.223 16.3467 152.603 16.1436V17.4404C152.192 17.6644 151.715 17.7764 151.173 17.7764C150.387 17.7764 149.791 17.5706 149.384 17.1592C148.978 16.7477 148.775 16.1618 148.775 15.4014V10.667H147.306V9.4248H148.775V7.22949H150.15V9.4248H152.603V10.667ZM162.225 6.54199C163.277 6.54199 164.23 6.78158 165.084 7.26074C165.938 7.73991 166.607 8.40137 167.092 9.24512C167.576 10.0837 167.818 11.0212 167.818 12.0576C167.818 13.0941 167.576 14.0342 167.092 14.8779C166.607 15.7217 165.938 16.3831 165.084 16.8623C164.23 17.3415 163.277 17.5811 162.225 17.5811H157.967V6.54199H162.225ZM162.209 16.2061C163.376 16.2061 164.352 15.8102 165.139 15.0186C165.925 14.2269 166.318 13.2399 166.318 12.0576C166.318 11.2816 166.139 10.5785 165.779 9.94824C165.425 9.31283 164.933 8.81543 164.303 8.45605C163.678 8.09668 162.98 7.91699 162.209 7.91699H159.436V16.2061H162.209ZM177.524 13.5029C177.524 13.5811 177.511 13.7842 177.485 14.1123H170.461C170.602 14.8311 170.943 15.4118 171.485 15.8545C172.032 16.292 172.698 16.5107 173.485 16.5107C174.068 16.5107 174.604 16.3883 175.094 16.1436C175.584 15.8936 175.966 15.5732 176.242 15.1826L177.188 15.9951C176.776 16.5472 176.242 16.9821 175.586 17.2998C174.935 17.6175 174.219 17.7764 173.438 17.7764C172.162 17.7764 171.099 17.3649 170.25 16.542C169.401 15.7191 168.977 14.6956 168.977 13.4717C168.977 12.68 169.162 11.9613 169.532 11.3154C169.907 10.6644 170.422 10.154 171.078 9.78418C171.735 9.41439 172.464 9.22949 173.266 9.22949C174.063 9.22949 174.787 9.41439 175.438 9.78418C176.089 10.154 176.599 10.667 176.969 11.3232C177.339 11.9743 177.524 12.7008 177.524 13.5029ZM173.25 10.4951C172.542 10.4951 171.93 10.7165 171.414 11.1592C170.899 11.5967 170.576 12.1644 170.446 12.8623H176.063C175.933 12.154 175.61 11.5837 175.094 11.1514C174.578 10.7139 173.964 10.4951 173.25 10.4951ZM181.721 17.7764C180.404 17.7764 179.299 17.3493 178.409 16.4951L179.174 15.5029C179.841 16.1852 180.682 16.5264 181.698 16.5264C182.25 16.5264 182.703 16.4248 183.057 16.2217C183.411 16.0133 183.588 15.7295 183.588 15.3701C183.588 15.2191 183.549 15.0837 183.471 14.9639C183.398 14.8389 183.31 14.7373 183.206 14.6592C183.107 14.5811 182.956 14.5055 182.753 14.4326C182.555 14.3545 182.38 14.2972 182.229 14.2607C182.083 14.2191 181.875 14.1644 181.604 14.0967C181.354 14.0342 181.156 13.9847 181.01 13.9482C180.864 13.9066 180.674 13.8441 180.44 13.7607C180.211 13.6774 180.023 13.5967 179.878 13.5186C179.737 13.4404 179.581 13.3389 179.409 13.2139C179.242 13.0837 179.109 12.9482 179.01 12.8076C178.917 12.6618 178.836 12.4899 178.768 12.292C178.706 12.0889 178.674 11.8675 178.674 11.6279C178.674 11.1175 178.82 10.6774 179.112 10.3076C179.404 9.93783 179.781 9.66699 180.245 9.49512C180.708 9.31803 181.226 9.22949 181.799 9.22949C182.976 9.22949 183.974 9.60189 184.792 10.3467L184.018 11.3545C183.419 10.7712 182.685 10.4795 181.815 10.4795C181.32 10.4795 180.909 10.5732 180.581 10.7607C180.253 10.9482 180.088 11.2113 180.088 11.5498C180.088 11.7061 180.128 11.8467 180.206 11.9717C180.284 12.0915 180.372 12.1904 180.471 12.2686C180.575 12.3467 180.732 12.4248 180.94 12.5029C181.148 12.5758 181.323 12.6331 181.463 12.6748C181.609 12.7113 181.823 12.7633 182.104 12.8311C182.349 12.8883 182.544 12.9378 182.69 12.9795C182.841 13.016 183.031 13.0732 183.26 13.1514C183.489 13.2295 183.674 13.3076 183.815 13.3857C183.961 13.4587 184.117 13.5576 184.284 13.6826C184.45 13.8076 184.581 13.9404 184.674 14.0811C184.768 14.2217 184.846 14.3936 184.909 14.5967C184.976 14.7946 185.01 15.0107 185.01 15.2451C185.01 16.0316 184.7 16.6514 184.081 17.1045C183.461 17.5524 182.674 17.7764 181.721 17.7764ZM187.2 7.79199C186.934 7.79199 186.713 7.70605 186.536 7.53418C186.359 7.3571 186.27 7.13835 186.27 6.87793C186.27 6.6123 186.359 6.39355 186.536 6.22168C186.713 6.0498 186.934 5.96387 187.2 5.96387C187.46 5.96387 187.677 6.0498 187.848 6.22168C188.02 6.39355 188.106 6.6123 188.106 6.87793C188.106 7.13835 188.018 7.3571 187.841 7.53418C187.669 7.70605 187.455 7.79199 187.2 7.79199ZM186.512 17.5811V9.4248H187.887V17.5811H186.512ZM195.108 17.792C195.884 17.792 196.523 17.9873 197.023 18.3779C197.523 18.7686 197.812 19.3024 197.89 19.9795L196.468 20.3467C196.452 19.9821 196.296 19.6878 195.999 19.4639C195.707 19.2451 195.33 19.1357 194.866 19.1357H191.858C191.181 19.1357 190.632 18.9561 190.21 18.5967C189.793 18.2373 189.585 17.7712 189.585 17.1982C189.585 16.8128 189.674 16.4535 189.851 16.1201C190.033 15.7816 190.28 15.5264 190.593 15.3545C190.239 15.0264 189.963 14.641 189.765 14.1982C189.572 13.7555 189.476 13.279 189.476 12.7686C189.476 11.7581 189.83 10.917 190.538 10.2451C191.252 9.56803 192.14 9.22949 193.202 9.22949C193.926 9.22949 194.593 9.40658 195.202 9.76074C195.28 9.32845 195.486 8.9847 195.819 8.72949C196.153 8.47428 196.567 8.34668 197.062 8.34668H197.687V9.62793H197.14C196.843 9.62793 196.601 9.71126 196.413 9.87793C196.231 10.0394 196.137 10.2555 196.132 10.5264C196.663 11.1566 196.929 11.904 196.929 12.7686C196.929 13.7738 196.572 14.6175 195.858 15.2998C195.145 15.9769 194.259 16.3154 193.202 16.3154C192.562 16.3154 191.986 16.1878 191.476 15.9326C191.314 16.0368 191.187 16.1722 191.093 16.3389C191.004 16.5003 190.96 16.6696 190.96 16.8467C190.96 17.1331 191.067 17.3623 191.28 17.5342C191.494 17.7061 191.773 17.792 192.116 17.792H195.108ZM193.202 10.542C192.541 10.542 191.991 10.7555 191.554 11.1826C191.116 11.6045 190.898 12.1331 190.898 12.7686C190.898 13.4092 191.116 13.943 191.554 14.3701C191.996 14.792 192.546 15.0029 193.202 15.0029C193.858 15.0029 194.405 14.792 194.843 14.3701C195.286 13.943 195.507 13.4092 195.507 12.7686C195.507 12.1331 195.286 11.6045 194.843 11.1826C194.405 10.7555 193.858 10.542 193.202 10.542ZM203.033 9.22949C204.027 9.22949 204.827 9.53158 205.431 10.1357C206.04 10.7399 206.345 11.542 206.345 12.542V17.5811H204.97V12.9717C204.97 12.2425 204.754 11.6592 204.322 11.2217C203.889 10.779 203.311 10.5576 202.587 10.5576C201.832 10.5576 201.228 10.7816 200.775 11.2295C200.322 11.6774 200.095 12.2686 200.095 13.0029V17.5811H198.72V9.4248H200.095V10.667C200.756 9.70866 201.736 9.22949 203.033 9.22949ZM216.355 13.5029C216.355 13.5811 216.342 13.7842 216.316 14.1123H209.292C209.433 14.8311 209.774 15.4118 210.316 15.8545C210.863 16.292 211.529 16.5107 212.316 16.5107C212.899 16.5107 213.436 16.3883 213.925 16.1436C214.415 15.8936 214.798 15.5732 215.074 15.1826L216.019 15.9951C215.608 16.5472 215.074 16.9821 214.417 17.2998C213.766 17.6175 213.05 17.7764 212.269 17.7764C210.993 17.7764 209.931 17.3649 209.082 16.542C208.233 15.7191 207.808 14.6956 207.808 13.4717C207.808 12.68 207.993 11.9613 208.363 11.3154C208.738 10.6644 209.253 10.154 209.91 9.78418C210.566 9.41439 211.295 9.22949 212.097 9.22949C212.894 9.22949 213.618 9.41439 214.269 9.78418C214.92 10.154 215.431 10.667 215.8 11.3232C216.17 11.9743 216.355 12.7008 216.355 13.5029ZM212.082 10.4951C211.373 10.4951 210.761 10.7165 210.246 11.1592C209.73 11.5967 209.407 12.1644 209.277 12.8623H214.894C214.764 12.154 214.441 11.5837 213.925 11.1514C213.41 10.7139 212.795 10.4951 212.082 10.4951ZM222.037 9.29199H222.31V10.7139H222.037C221.178 10.7139 220.498 10.9665 219.998 11.4717C219.503 11.9717 219.256 12.6488 219.256 13.5029V17.5811H217.881V9.4248H219.256V10.8311C219.896 9.80501 220.823 9.29199 222.037 9.29199Z" fill="black"/>
</svg>
