<svg width="86" height="86" viewBox="0 0 86 86" fill="none" xmlns="http://www.w3.org/2000/svg">
<rect width="86" height="86" rx="43" fill="#FD853A"/>
<path d="M61.698 48.5728C60.0226 50.4217 57.9657 51.5652 55.4769 51.6621C50.7774 51.8448 47.1396 49.0545 46.689 45.5634C45.7925 38.6139 50.2686 34.3374 55.1708 34.3374C57.6653 34.3374 59.5221 35.3008 61.1706 36.8455L65.4715 31.9493C63.1376 29.6175 59.5481 27.5 55.1708 27.5C50.9327 27.5 47.1188 28.9167 44.2267 31.5633V28.1318H22.9134V34.7654H36.3977V45.3176C36.3977 50.1085 34.5928 51.6621 31.0802 51.6621C28.7988 51.6621 26.4644 50.3138 24.489 47.8188L20 52.7261C23.01 56.9827 27.51 58.5 31.3395 58.5C37.2666 58.5 40.7978 56.312 42.6245 53.0146C45.5977 56.6415 49.9557 58.5 54.6708 58.5C59.3184 58.5 63.1823 56.7368 66 53.3621L61.698 48.5728Z" fill="white"/>
</svg>
