<svg width="36" height="36" viewBox="0 0 36 36" fill="none" xmlns="http://www.w3.org/2000/svg">
<path d="M12.135 17.445H5.1C5.22 10.44 6.6 9.285 10.905 6.735C11.4 6.435 11.565 5.805 11.265 5.295C10.98 4.8 10.335 4.635 9.84 4.935C4.77 7.935 3 9.765 3 18.48V26.565C3 29.13 5.085 31.2 7.635 31.2H12.135C14.775 31.2 16.77 29.205 16.77 26.565V22.065C16.77 19.44 14.775 17.445 12.135 17.445Z" fill="#344054"/>
<path d="M28.3651 17.445H21.3301C21.4501 10.44 22.8301 9.285 27.1351 6.735C27.6301 6.435 27.7951 5.805 27.4951 5.295C27.1951 4.8 26.5651 4.635 26.0551 4.935C20.9851 7.935 19.2151 9.765 19.2151 18.495V26.58C19.2151 29.145 21.3001 31.215 23.8501 31.215H28.3501C30.9901 31.215 32.9851 29.22 32.9851 26.58V22.08C33.0001 19.44 31.0051 17.445 28.3651 17.445Z" fill="#344054"/>
</svg>
